<svg width="20" height="20" viewBox="0 0 20 20" fill="none" xmlns="http://www.w3.org/2000/svg">
<path d="M3.91875 4C2.85938 4 2 4.85938 2 5.91875C2 5.94688 2 5.97188 2.00313 6H2V14C2 15.1031 2.89688 16 4 16H16C17.1031 16 18 15.1031 18 14V6H17.9969C17.9969 5.97188 18 5.94688 18 5.91875C18 4.85938 17.1406 4 16.0813 4H3.91875ZM16.5 8.00938V14C16.5 14.275 16.275 14.5 16 14.5H4C3.725 14.5 3.5 14.275 3.5 14V8.00938L8.3375 11.6781C9.31875 12.425 10.6781 12.425 11.6625 11.6781L16.5 8.00938ZM3.5 5.91875C3.5 5.6875 3.6875 5.5 3.91875 5.5H16.0813C16.3125 5.5 16.5 5.6875 16.5 5.91875C16.5 6.05 16.4375 6.175 16.3344 6.25313L10.7563 10.4844C10.3094 10.8219 9.69063 10.8219 9.24375 10.4844L3.66562 6.25313C3.5625 6.175 3.5 6.05 3.5 5.91875Z" fill="#FAFAFA"/>
</svg>
