<svg width="20" height="20" viewBox="0 0 20 20" fill="none" xmlns="http://www.w3.org/2000/svg">
<path d="M6.13438 16H3.23125V6.65312H6.13438V16ZM4.68125 5.37812C3.75312 5.37812 3 4.60938 3 3.68125C3 3.23437 3.17812 2.80938 3.49375 2.49375C3.80938 2.17812 4.2375 2 4.68125 2C5.125 2 5.55313 2.17812 5.86875 2.49375C6.18438 2.80938 6.3625 3.2375 6.3625 3.68125C6.3625 4.60938 5.60938 5.37812 4.68125 5.37812ZM16.9969 16H14.1V11.45C14.1 10.3656 14.0781 8.975 12.5906 8.975C11.0812 8.975 10.85 10.1531 10.85 11.3719V16H7.95V6.65312H10.7344V7.92812H10.775C11.1625 7.19375 12.1094 6.41875 13.5219 6.41875C16.4594 6.41875 17 8.35313 17 10.8656V16H16.9969Z" fill="#FAFAFA"/>
</svg>
