<svg width="20" height="20" viewBox="0 0 20 20" fill="none" xmlns="http://www.w3.org/2000/svg">
<path fill-rule="evenodd" clip-rule="evenodd" d="M3 5C3 3.89688 3.89688 3 5 3H15C16.1031 3 17 3.89688 17 5V15C17 16.1031 16.1031 17 15 17H5C3.89688 17 3 16.1031 3 15V5ZM5.15625 15V8.31875H7.23438V15H5.15625ZM15.0094 15H12.9344V11.75C12.9344 10.975 12.9187 9.97813 11.8562 9.97813C10.775 9.97813 10.6094 10.8219 10.6094 11.6938V15H8.53438V8.31875H10.525V9.23125H10.5531C10.8312 8.70625 11.5094 8.15312 12.5188 8.15312C14.6187 8.15312 15.0094 9.5375 15.0094 11.3375V15ZM7.04449 5.35239C6.81886 5.12676 6.51284 5 6.19375 5C5.87466 5 5.56864 5.12676 5.34301 5.35239C5.11738 5.57802 4.99063 5.88404 4.99063 6.20312C4.99063 6.52221 5.11738 6.82823 5.34301 7.05386C5.56864 7.27949 5.87466 7.40625 6.19375 7.40625C6.51284 7.40625 6.81886 7.27949 7.04449 7.05386C7.27012 6.82823 7.39687 6.52221 7.39687 6.20312C7.39687 5.88404 7.27012 5.57802 7.04449 5.35239Z" fill="#404040"/>
</svg>
