<svg width="15" height="15" viewBox="0 0 15 15" fill="none" xmlns="http://www.w3.org/2000/svg">
<g clip-path="url(#clip0_4189_1292)">
<path d="M2.4375 1.875H8.0625C8.37422 1.875 8.625 2.12578 8.625 2.4375V6.9375C8.625 7.24922 8.37422 7.5 8.0625 7.5H5.94375C5.61328 7.5 5.29219 7.61016 5.02969 7.81172L3.75 8.79609V8.0625C3.75 7.75078 3.49922 7.5 3.1875 7.5H2.4375C2.12578 7.5 1.875 7.24922 1.875 6.9375V2.4375C1.875 2.12578 2.12578 1.875 2.4375 1.875ZM0.75 2.4375V6.9375C0.75 7.87031 1.50469 8.625 2.4375 8.625H2.625V9.9375C2.625 10.1508 2.74688 10.3477 2.93906 10.4414C3.13125 10.5352 3.36094 10.5141 3.52969 10.3828L5.71406 8.70234C5.77969 8.65078 5.85938 8.625 5.94375 8.625H8.0625C8.99531 8.625 9.75 7.87031 9.75 6.9375V2.4375C9.75 1.50469 8.99531 0.75 8.0625 0.75H2.4375C1.50469 0.75 0.75 1.50469 0.75 2.4375ZM6.375 10.6875V9.75H6.19922L5.25 10.4789V10.6875C5.25 11.6203 6.00469 12.375 6.9375 12.375H9.05625C9.13828 12.375 9.22031 12.4031 9.28594 12.4523L11.4703 14.1328C11.6391 14.2641 11.8688 14.2852 12.0609 14.1914C12.2531 14.0977 12.375 13.9008 12.375 13.6875V12.375H12.5625C13.4953 12.375 14.25 11.6203 14.25 10.6875V6.1875C14.25 5.25469 13.4953 4.5 12.5625 4.5H10.875V5.625H12.5625C12.8742 5.625 13.125 5.87578 13.125 6.1875V10.6875C13.125 10.9992 12.8742 11.25 12.5625 11.25H11.8125C11.5008 11.25 11.25 11.5008 11.25 11.8125V12.5461L9.97031 11.5617C9.70781 11.3602 9.38672 11.25 9.05625 11.25H6.9375C6.62578 11.25 6.375 10.9992 6.375 10.6875ZM5.25 3.28125C5.5875 3.28125 5.86172 3.55547 5.86172 3.89297C5.86172 4.10859 5.77031 4.23047 5.64844 4.32187C5.51016 4.425 5.33437 4.47891 5.23594 4.5C4.9875 4.55391 4.78125 4.77422 4.78125 5.0625C4.78125 5.32031 4.99219 5.53125 5.25 5.53125C5.38828 5.53125 5.51484 5.47031 5.59922 5.37422C5.76797 5.32266 5.99531 5.23359 6.20859 5.07422C6.52031 4.84219 6.79922 4.46016 6.79922 3.89297C6.79922 3.0375 6.10547 2.34375 5.25 2.34375C4.56562 2.34375 3.98438 2.78672 3.78047 3.40312C3.69844 3.64922 3.83203 3.91406 4.07578 3.99609C4.31953 4.07812 4.58672 3.94453 4.66875 3.70078C4.75078 3.45469 4.98047 3.28125 5.25 3.28125ZM5.8125 6.375C5.8125 6.22582 5.75324 6.08274 5.64775 5.97725C5.54226 5.87176 5.39918 5.8125 5.25 5.8125C5.10082 5.8125 4.95774 5.87176 4.85225 5.97725C4.74676 6.08274 4.6875 6.22582 4.6875 6.375C4.6875 6.52418 4.74676 6.66726 4.85225 6.77275C4.95774 6.87824 5.10082 6.9375 5.25 6.9375C5.39918 6.9375 5.54226 6.87824 5.64775 6.77275C5.75324 6.66726 5.8125 6.52418 5.8125 6.375Z" fill="black"/>
</g>
<defs>
<clipPath id="clip0_4189_1292">
<rect width="15" height="15" fill="white"/>
</clipPath>
</defs>
</svg>
