<svg width="15" height="15" viewBox="0 0 15 15" fill="none" xmlns="http://www.w3.org/2000/svg">
<path d="M4.875 2.625C4.66875 2.625 4.5 2.79375 4.5 3V12C4.5 12.2063 4.66875 12.375 4.875 12.375H10.125C10.3313 12.375 10.5 12.2063 10.5 12V3C10.5 2.79375 10.3313 2.625 10.125 2.625H4.875ZM3.375 3C3.375 2.17266 4.04766 1.5 4.875 1.5H10.125C10.9523 1.5 11.625 2.17266 11.625 3V12C11.625 12.8273 10.9523 13.5 10.125 13.5H4.875C4.04766 13.5 3.375 12.8273 3.375 12V3ZM7.5 9.75C7.69891 9.75 7.88968 9.82902 8.03033 9.96967C8.17098 10.1103 8.25 10.3011 8.25 10.5C8.25 10.6989 8.17098 10.8897 8.03033 11.0303C7.88968 11.171 7.69891 11.25 7.5 11.25C7.30109 11.25 7.11032 11.171 6.96967 11.0303C6.82902 10.8897 6.75 10.6989 6.75 10.5C6.75 10.3011 6.82902 10.1103 6.96967 9.96967C7.11032 9.82902 7.30109 9.75 7.5 9.75Z" fill="black"/>
</svg>
