<svg width="60" height="20" viewBox="0 0 60 20" fill="none" xmlns="http://www.w3.org/2000/svg">
<g clip-path="url(#clip0_334_293)">
<path fill-rule="evenodd" clip-rule="evenodd" d="M55.9639 10.3314C56.3528 9.95875 56.3784 9.90661 56.3273 9.59192C56.2527 9.13187 56.017 8.84333 55.4972 8.57556C55.0991 8.37061 54.9382 8.34733 53.7087 8.31686C52.9656 8.29852 51.9329 8.3281 51.4138 8.38266C50.8947 8.43722 50.207 8.50401 49.8857 8.53106C49.5643 8.55812 48.9576 8.62392 48.5373 8.6774C48.1171 8.73079 47.6387 8.78715 47.4741 8.8027C47.1666 8.83165 46.2913 8.96567 45.3546 9.12729C45.0626 9.17762 44.6783 9.23416 44.5007 9.25277C44.3231 9.27147 44.0767 9.30922 43.9531 9.33673C43.8295 9.36423 43.4857 9.42607 43.189 9.47425C42.8924 9.52234 42.4677 9.60333 42.2452 9.6543C42.0227 9.70527 41.5613 9.78634 41.2198 9.83452C40.8783 9.88261 40.4738 9.96019 40.3209 10.007C40.168 10.0538 39.4362 10.2023 38.6947 10.3373C37.9531 10.4721 37.0632 10.6592 36.7171 10.7531C35.7955 11.003 35.4756 11.0819 34.38 11.3302C33.0172 11.6389 32.4261 11.7827 32.2677 11.8437C32.1935 11.8723 32.0317 11.9161 31.9081 11.9412L31.0298 12.1195C30.6704 12.1925 30.3438 12.2722 30.3042 12.2967C30.2644 12.3213 29.9518 12.4039 29.6094 12.4803C29.267 12.5568 28.6834 12.6997 28.3126 12.7979C27.0322 13.137 27.0368 13.0314 28.3342 12.2997C28.8414 12.0137 29.4789 11.6526 29.7508 11.4972C30.406 11.1229 34.0174 9.35003 34.8868 8.97583C35.2645 8.81331 35.9116 8.51857 36.325 8.32091C37.8506 7.59129 38.46 7.37196 39.998 6.99884C40.8632 6.78895 41.9553 6.51012 42.425 6.37924C42.8947 6.24837 43.3658 6.12252 43.472 6.0996C44.6365 5.84837 45.2095 5.48792 45.0822 5.08675C45.0382 4.94836 45.1013 4.88822 45.4118 4.77281C45.9015 4.5907 47.2543 4.19402 47.9531 4.02755C48.2497 3.9569 48.5733 3.85946 48.6722 3.81101C48.7711 3.76256 49.1149 3.65874 49.4362 3.58036C49.7576 3.50198 50.1621 3.40292 50.3351 3.36031C52.8305 2.74521 56.8062 2.15267 58.0997 2.2031C58.9255 2.23519 59.1441 2.12382 59.1441 1.67052C59.1441 0.976223 58.5914 0.622426 57.616 0.692358C56.735 0.755549 55.6169 0.920673 53.4812 1.30323L53.4755 1.30425C51.3717 1.68112 51.3714 1.68117 50.7845 1.83366C50.5621 1.89155 50.1576 1.99096 49.8857 2.0547C49.2956 2.19294 47.2024 2.78054 46.6947 2.95043C46.4969 3.01667 46.0317 3.16013 45.6609 3.26944C45.2902 3.37874 44.5216 3.62323 43.9531 3.8129C42.9902 4.13407 42.827 4.16103 41.5711 4.20688C40.8295 4.23402 39.6767 4.29712 39.0093 4.34728C38.3418 4.39735 37.5126 4.45811 37.1666 4.4822C36.8205 4.50629 36.1126 4.56697 35.5935 4.61703C35.0744 4.6671 34.1441 4.75069 33.5261 4.80274C30.9217 5.0223 25.9571 5.72243 23.998 6.14652C23.7756 6.1947 23.1688 6.31902 22.6497 6.42284C22.1306 6.52666 21.4643 6.66679 21.1691 6.73439C20.8738 6.80189 20.6223 6.8472 20.6101 6.83506C20.5979 6.82284 20.539 6.41448 20.4792 5.92747C20.3587 4.94764 20.2101 4.67636 19.7179 4.53829C19.2392 4.40391 19.2057 4.48508 19.2643 5.63677C19.2933 6.2072 19.3426 6.77556 19.3738 6.89978C19.4253 7.10509 19.3991 7.13124 19.085 7.18796C18.895 7.2223 18.6789 7.28145 18.6048 7.31956C18.5306 7.35758 18.3486 7.40864 18.2003 7.433C17.8156 7.4961 16.4985 7.84064 16.2028 7.95533C16.0654 8.00864 15.8722 8.0685 15.7733 8.08828C15.6744 8.10814 15.1688 8.2481 14.6497 8.39929C14.1306 8.55057 13.5845 8.70859 13.4362 8.75057C12.3484 9.05834 11.2477 9.40198 10.5598 9.64873C10.1149 9.80828 9.56881 9.99192 9.34634 10.0566C8.83662 10.205 7.53837 10.6832 6.20031 11.2153C3.96642 12.1036 1.41172 13.5685 0.432393 14.5223C0.0615161 14.8836 -0.00167469 14.9954 3.31742e-05 15.2883C0.00263992 15.7255 0.22889 16.0098 0.62116 16.0687C0.899002 16.1105 0.991317 16.0604 1.54961 15.5654C2.95707 14.3177 5.06341 13.176 8.13289 11.9972C8.67671 11.7884 9.24297 11.5654 9.39128 11.5018C10.0454 11.221 13.7498 10.0171 14.6497 9.79282C14.7239 9.77439 15.1486 9.64828 15.5935 9.51272C16.0385 9.37717 16.989 9.11138 17.7059 8.92207C18.4227 8.73286 19.0997 8.55282 19.2102 8.52216C19.4744 8.44873 19.5504 8.65879 19.6257 9.67282C19.6912 10.5536 19.6806 10.571 19.0076 10.6894C18.8108 10.7241 18.5588 10.8094 18.4478 10.879C18.3294 10.9534 18.153 10.9823 18.0209 10.9491C17.8615 10.9091 17.7958 10.9291 17.7958 11.0177C17.7958 11.0949 17.7068 11.1389 17.5631 11.1326C17.435 11.1269 17.1684 11.2024 16.9706 11.3003C16.7728 11.3982 16.4863 11.4748 16.3341 11.4705C16.1819 11.4662 15.9449 11.5207 15.8075 11.5918C15.67 11.6629 15.4342 11.7211 15.2834 11.7211C15.1326 11.7211 15.0093 11.7642 15.0093 11.817C15.0093 11.874 14.9316 11.8883 14.8182 11.8523C14.6811 11.8088 14.6462 11.8225 14.6947 11.9009C14.7425 11.9783 14.7097 11.9934 14.5814 11.9526C14.482 11.9211 14.3051 11.9337 14.1881 11.9807C13.748 12.1574 13.6135 12.2056 13.5261 12.2177C13.4292 12.2312 12.994 12.4096 12.7409 12.5398C12.5369 12.6446 12.4686 12.6413 12.5373 12.5301C12.6128 12.4081 12.558 12.4167 12.2555 12.5745C12.1139 12.6483 11.8699 12.709 11.7133 12.7093C11.5569 12.7096 11.4144 12.753 11.3968 12.8058C11.3791 12.8586 11.1769 12.909 10.9472 12.9179C10.7176 12.9268 10.5364 12.9731 10.5447 13.0209C10.5531 13.0685 10.3273 13.144 10.043 13.1886C9.75865 13.2331 9.52548 13.3155 9.52476 13.3718C9.52378 13.4415 9.50121 13.439 9.45348 13.3639C9.39928 13.2786 9.27811 13.2876 8.91554 13.4035C8.6581 13.4858 8.4475 13.5882 8.4475 13.6312C8.4475 13.6741 8.40983 13.6859 8.36381 13.6575C8.31779 13.629 8.25586 13.6451 8.2261 13.6932C8.19635 13.7413 8.1159 13.7591 8.04714 13.7327C7.97846 13.7063 7.83626 13.7308 7.73127 13.787C7.62619 13.8432 7.26907 13.9646 6.93765 14.0566C6.25298 14.2469 5.65882 14.4583 5.31311 14.6348C5.18305 14.7011 4.85586 14.8022 4.58601 14.8593C4.31608 14.9164 4.03294 15.018 3.9568 15.0849C3.88058 15.1517 3.39977 15.356 2.88822 15.5387C2.37667 15.7214 1.76992 15.9787 1.5399 16.1106C1.30988 16.2424 0.911587 16.4514 0.65478 16.575C0.397971 16.6986 0.149337 16.8834 0.102325 16.9857C-0.0240566 17.2602 0.0832738 17.657 0.348622 17.8965C0.536307 18.0657 0.649473 18.0977 0.923182 18.0586C1.31401 18.0028 1.85855 17.6767 1.91392 17.4654C1.96615 17.2661 4.86188 16.0376 6.42502 15.5516C6.86997 15.4134 7.31491 15.2675 7.41379 15.2276C7.80174 15.0708 8.14655 14.9658 8.4475 14.9129C8.62053 14.8824 8.90368 14.8039 9.07667 14.7383C9.24971 14.6726 9.87667 14.4885 10.4699 14.3291C11.0632 14.1696 11.6497 14.008 11.7733 13.9698C11.8969 13.9317 12.3014 13.814 12.6722 13.7083C13.043 13.6027 13.7104 13.4113 14.1553 13.283C14.6003 13.1547 15.1261 13.0155 15.3239 12.9736C15.6455 12.9054 16.1326 12.7727 16.9418 12.5326C17.0902 12.4886 17.5149 12.3703 17.8857 12.2696C19.1013 11.9395 19.5037 11.8215 19.5847 11.7714C19.7311 11.6811 19.7733 11.9955 19.7752 13.1891C19.7763 13.8401 19.816 14.9593 19.8636 15.6761C19.911 16.393 19.9771 17.5548 20.0103 18.2579C20.0683 19.4859 20.0798 19.5444 20.304 19.7421C20.4324 19.8554 20.5778 19.9446 20.6272 19.9405C20.8215 19.9242 21.183 19.6992 21.2085 19.5786C21.3035 19.1285 21.2279 15.8618 21.0478 12.6383C21.0103 11.9687 21.0199 11.4992 21.0718 11.4473C21.119 11.4001 21.3045 11.3615 21.4841 11.3615C21.6638 11.3615 21.8391 11.3332 21.8738 11.2985C21.9084 11.2639 22.4714 11.1069 23.1247 10.9497C23.7781 10.7925 24.6362 10.5801 25.0317 10.4778C26.2327 10.1672 26.8688 10.0081 28.043 9.7245C30.1713 9.21043 31.594 8.83479 31.7614 8.74257C31.8562 8.69043 31.9632 8.68405 32.0073 8.7281C32.0513 8.77214 31.391 9.1547 30.4911 9.60666C27.2849 11.2167 25.8889 12.0653 25.2175 12.8121C24.5366 13.5694 24.5816 14.1865 25.3463 14.5819C25.7021 14.7658 25.8392 14.7854 26.4851 14.7452C26.8891 14.72 27.3421 14.6361 27.492 14.5586C27.6418 14.4811 27.8266 14.4177 27.9027 14.4177C27.9788 14.4177 28.4763 14.2936 29.0083 14.1419C30.0716 13.8387 34.1409 12.7864 35.2789 12.5205C35.6744 12.428 36.0991 12.3281 36.2227 12.2984C36.7379 12.1748 38.453 11.811 38.9194 11.7262C39.1418 11.6858 39.8295 11.5427 40.4475 11.4082C41.759 11.1227 41.6287 11.148 43.0094 10.9126C43.6026 10.8116 44.1486 10.7108 44.2227 10.6887C44.2969 10.6667 44.9845 10.5668 45.7508 10.4669C46.5171 10.3669 47.5486 10.2267 48.043 10.1552C48.785 10.048 49.5234 9.9725 50.6947 9.88405C50.7688 9.87848 51.1126 9.84342 51.4587 9.8063C52.7205 9.67066 53.0317 9.65789 53.0317 9.7414C53.0317 9.78805 52.8599 9.87192 52.6497 9.92783C52.4396 9.98374 51.7216 10.2724 51.0542 10.5692C49.203 11.3927 47.0894 12.1941 46.1219 12.4393C45.9551 12.4815 45.7751 12.5597 45.7219 12.6129C45.6686 12.6663 45.516 12.7099 45.3827 12.7099C45.2493 12.7099 44.8428 12.831 44.4793 12.9792C44.1157 13.1274 43.771 13.2487 43.7132 13.2489C43.6554 13.249 43.4936 13.3074 43.3536 13.3785C43.2137 13.4497 42.707 13.6612 42.2277 13.8486C41.4689 14.1453 41.3324 14.2318 41.1715 14.518C40.8334 15.1196 41.0031 15.7676 41.5131 15.8235C41.8762 15.8632 42.6861 15.6707 43.3688 15.3825C44.35 14.9682 46.4235 14.1289 46.5149 14.109C46.5643 14.0983 46.7868 14.0055 47.0093 13.903C48.6845 13.1308 49.7964 12.7172 51.4138 12.2645C51.7845 12.1608 52.3306 12.0005 52.6272 11.9082L53.1666 11.7406C53.5932 11.7008 54.75 11.3633 55.9639 10.3314ZM37.2115 6.23542C38.0351 6.0667 38.6497 5.87398 38.6497 5.78455C38.6497 5.6881 38.4487 5.69457 36.7621 5.84558C36.0947 5.90536 35.1845 5.97897 34.7396 6.00909C34.2947 6.03929 33.8295 6.08234 33.7059 6.10482C33.5823 6.12729 33.2587 6.16621 32.9868 6.19138C31.79 6.30212 31.0216 6.39731 28.2677 6.77619C26.6898 6.99327 26.7872 6.97601 23.3818 7.64055L20.7429 8.15542L20.8015 9.01691C20.8337 9.4907 20.8818 9.99003 20.9083 10.1265L20.9565 10.3746L21.204 10.1984C21.34 10.1014 21.5289 10.0227 21.6236 10.0235C21.802 10.0249 23.4594 9.58509 24.1898 9.34257C24.419 9.26652 24.7111 9.20423 24.839 9.20423C24.967 9.20423 25.6087 9.05673 26.2652 8.87641C26.9216 8.6961 27.5384 8.55264 27.6359 8.55767C27.7334 8.5627 27.875 8.51138 27.9505 8.4436C28.0261 8.37583 28.2902 8.27884 28.5373 8.22796C29.3135 8.06841 29.98 7.88387 30.1942 7.76927C30.3077 7.70859 30.5374 7.67488 30.7049 7.69439C30.8723 7.71399 31.0093 7.6952 31.0093 7.65277C31.0093 7.61034 31.0497 7.60064 31.0991 7.6312C31.1486 7.66176 31.189 7.64387 31.189 7.59156C31.189 7.53924 31.2837 7.49637 31.3995 7.49637C31.5152 7.49637 31.7984 7.43965 32.0288 7.37025C32.2629 7.29978 32.4695 7.27956 32.4972 7.32432C32.5244 7.36846 32.6356 7.34931 32.7443 7.2819C32.9584 7.14904 33.5773 6.9823 34.2902 6.86562C34.5373 6.82509 34.9216 6.74706 35.1441 6.69214C35.6004 6.57951 36.4753 6.38626 37.2115 6.23542ZM53.6998 9.75345C53.6133 9.8934 53.7188 9.95021 53.8887 9.85511C54.024 9.77942 54.025 9.7645 53.8983 9.71596C53.8204 9.68603 53.7311 9.70293 53.6998 9.75345Z" fill="black"/>
<path fill-rule="evenodd" clip-rule="evenodd" d="M23.6074 17.3686C23.3996 17.5983 23.4691 17.8405 23.8299 18.1441C24.3096 18.5477 24.8969 18.3615 24.8969 17.8059C24.8969 17.3374 23.932 17.0101 23.6074 17.3686Z" fill="black"/>
</g>
<defs>
<clipPath id="clip0_334_293">
<rect width="60" height="20" fill="white"/>
</clipPath>
</defs>
</svg>
