<svg width="1061" height="267" viewBox="0 0 1061 267" fill="none" xmlns="http://www.w3.org/2000/svg">
<path fill-rule="evenodd" clip-rule="evenodd" d="M692.225 1.14737C690.392 3.44437 688.053 8.63238 687.544 11.5304C686.489 17.5274 684.965 29.1474 683.504 42.3214C681.788 57.8004 680.72 61.7474 672.526 82.8974C671.78 84.8224 669.732 90.2224 667.974 94.8974C658.203 120.88 636.48 153.131 622.642 162.197C617.903 165.303 617.881 163.956 622.598 159.437C626.925 155.291 627.21 154.711 626.641 151.21C625.811 146.092 623.189 142.882 617.406 139.903C612.978 137.623 611.187 137.364 597.509 137.025C589.242 136.821 577.753 137.15 571.978 137.757C566.203 138.364 558.553 139.107 554.978 139.408C551.403 139.709 544.653 140.441 539.978 141.036C535.303 141.63 529.98 142.257 528.149 142.43C524.728 142.752 514.991 144.243 504.57 146.041C501.321 146.601 497.046 147.23 495.07 147.437C493.094 147.645 490.353 148.065 488.978 148.371C487.603 148.677 483.778 149.365 480.478 149.901C477.178 150.436 472.453 151.337 469.978 151.904C467.503 152.471 462.369 153.373 458.57 153.909C454.771 154.444 450.271 155.307 448.57 155.828C446.869 156.348 438.728 158.001 430.478 159.502C422.228 161.002 412.328 163.084 408.478 164.128C398.225 166.908 394.666 167.786 382.478 170.548C367.316 173.983 360.74 175.582 358.978 176.261C358.153 176.579 356.353 177.067 354.978 177.346C353.603 177.625 349.206 178.518 345.207 179.329C341.208 180.141 337.575 181.028 337.134 181.301C336.692 181.574 333.214 182.493 329.405 183.343C325.595 184.194 319.103 185.784 314.978 186.877C300.733 190.649 300.784 189.474 315.218 181.334C320.861 178.152 327.953 174.135 330.978 172.406C338.267 168.242 378.443 148.519 388.116 144.356C392.317 142.548 399.517 139.269 404.116 137.07C421.088 128.953 427.867 126.513 444.978 122.362C454.603 120.027 466.753 116.925 471.978 115.469C477.203 114.013 482.445 112.613 483.626 112.358C496.581 109.563 502.956 105.553 501.539 101.09C501.05 99.5504 501.752 98.8814 505.206 97.5974C510.654 95.5714 525.704 91.1584 533.478 89.3064C536.778 88.5204 540.378 87.4364 541.478 86.8974C542.578 86.3584 546.403 85.2034 549.978 84.3314C553.553 83.4594 558.053 82.3574 559.978 81.8834C587.739 75.0404 631.969 68.4484 646.359 69.0094C655.546 69.3664 657.978 68.1274 657.978 63.0844C657.978 55.3604 651.829 51.4244 640.978 52.2024C631.177 52.9054 618.738 54.7424 594.978 58.9984C571.51 63.2024 571.513 63.2014 564.978 64.8994C562.503 65.5434 558.003 66.6494 554.978 67.3584C548.414 68.8964 525.127 75.4334 519.478 77.3234C517.278 78.0604 512.103 79.6564 507.978 80.8724C503.853 82.0884 495.303 84.8084 488.978 86.9184C478.266 90.4914 476.45 90.7914 462.478 91.3014C454.228 91.6034 441.403 92.3054 433.978 92.8634C426.553 93.4204 417.328 94.0964 413.478 94.3644C409.628 94.6324 401.753 95.3074 395.978 95.8644C390.203 96.4214 379.853 97.3514 372.978 97.9304C344.004 100.373 288.773 108.162 266.978 112.88C264.503 113.416 257.753 114.799 251.978 115.954C246.203 117.109 238.79 118.668 235.506 119.42C232.221 120.171 229.423 120.675 229.287 120.54C229.152 120.404 228.496 115.861 227.831 110.443C226.491 99.5424 224.837 96.5244 219.362 94.9884C214.036 93.4934 213.663 94.3964 214.315 107.209C214.638 113.555 215.186 119.878 215.533 121.26C216.106 123.544 215.815 123.835 212.321 124.466C210.207 124.848 207.803 125.506 206.978 125.93C206.153 126.353 204.128 126.921 202.478 127.192C198.199 127.894 183.546 131.727 180.256 133.003C178.728 133.596 176.578 134.262 175.478 134.482C174.378 134.703 168.753 136.26 162.978 137.942C157.203 139.625 151.128 141.383 149.478 141.85C137.376 145.274 125.131 149.097 117.478 151.842C112.528 153.617 106.453 155.66 103.978 156.38C98.3074 158.031 83.8644 163.35 68.9784 169.27C44.1264 179.153 15.7054 195.449 4.81037 206.061C0.684367 210.08 -0.0186309 211.324 0.000369065 214.582C0.0293691 219.446 2.5464 222.609 6.9104 223.264C10.0014 223.729 11.0284 223.172 17.2394 217.665C32.8974 203.784 56.3304 191.083 90.4784 177.969C96.5284 175.646 102.828 173.165 104.478 172.457C111.755 169.334 152.967 155.94 162.978 153.445C163.803 153.24 168.528 151.837 173.478 150.329C178.428 148.821 189.003 145.864 196.978 143.758C204.953 141.653 212.484 139.65 213.713 139.309C216.653 138.492 217.498 140.829 218.336 152.11C219.065 161.909 218.947 162.102 211.46 163.42C209.27 163.806 206.467 164.755 205.232 165.529C203.915 166.356 201.952 166.678 200.482 166.309C198.709 165.864 197.978 166.086 197.978 167.072C197.978 167.931 196.988 168.42 195.389 168.35C193.964 168.287 190.998 169.127 188.798 170.216C186.597 171.305 183.41 172.157 181.717 172.109C180.024 172.061 177.387 172.668 175.858 173.459C174.329 174.25 171.705 174.897 170.028 174.897C168.35 174.897 166.978 175.377 166.978 175.964C166.978 176.598 166.114 176.757 164.853 176.357C163.327 175.873 162.939 176.025 163.478 176.897C164.01 177.759 163.645 177.926 162.218 177.473C161.112 177.122 159.144 177.262 157.843 177.785C152.947 179.751 151.45 180.287 150.478 180.422C149.4 180.572 144.558 182.557 141.742 184.005C139.473 185.171 138.713 185.134 139.478 183.897C140.317 182.54 139.708 182.636 136.342 184.391C134.767 185.212 132.053 185.887 130.311 185.891C128.57 185.894 126.985 186.377 126.789 186.965C126.593 187.552 124.343 188.113 121.788 188.212C119.233 188.311 117.218 188.826 117.31 189.357C117.403 189.887 114.891 190.727 111.728 191.223C108.565 191.718 105.971 192.635 105.963 193.261C105.952 194.037 105.701 194.009 105.17 193.173C104.567 192.224 103.219 192.324 99.1854 193.614C96.3214 194.529 93.9784 195.669 93.9784 196.147C93.9784 196.624 93.5594 196.756 93.0474 196.44C92.5354 196.123 91.8464 196.302 91.5154 196.837C91.1844 197.372 90.2894 197.57 89.5244 197.276C88.7604 196.983 87.1784 197.255 86.0104 197.88C84.8414 198.506 80.8684 199.856 77.1814 200.88C69.5644 202.997 62.9544 205.349 59.1084 207.312C57.6614 208.05 54.0214 209.174 51.0194 209.81C48.0164 210.445 44.8664 211.575 44.0194 212.319C43.1714 213.063 37.8224 215.335 32.1314 217.368C26.4404 219.4 19.6904 222.263 17.1314 223.73C14.5724 225.197 10.1414 227.522 7.28443 228.897C4.42743 230.272 1.66137 232.328 1.13837 233.466C-0.26763 236.52 0.926421 240.934 3.87842 243.598C5.96642 245.481 7.22539 245.837 10.2704 245.402C14.6184 244.781 20.6764 241.153 21.2924 238.803C21.8734 236.585 54.0884 222.918 71.4784 217.512C76.4284 215.974 81.3784 214.351 82.4784 213.907C86.7944 212.163 90.6304 210.995 93.9784 210.406C95.9034 210.067 99.0534 209.193 100.978 208.463C102.903 207.733 109.878 205.685 116.478 203.911C123.078 202.137 129.603 200.339 130.978 199.914C132.353 199.49 136.853 198.181 140.978 197.005C145.103 195.83 152.528 193.701 157.478 192.273C162.428 190.846 168.278 189.297 170.478 188.831C174.056 188.073 179.475 186.596 188.478 183.925C190.128 183.436 194.853 182.119 198.978 180.999C212.502 177.327 216.979 176.014 217.88 175.457C219.508 174.452 219.978 177.95 219.999 191.229C220.011 198.471 220.453 210.922 220.982 218.897C221.51 226.872 222.245 239.797 222.615 247.619C223.26 261.281 223.388 261.931 225.882 264.131C227.31 265.391 228.928 266.384 229.478 266.338C231.639 266.157 235.661 263.653 235.944 262.312C237.001 257.304 236.16 220.963 234.157 185.101C233.74 177.652 233.846 172.429 234.424 171.851C234.949 171.326 237.013 170.897 239.011 170.897C241.01 170.897 242.96 170.582 243.346 170.196C243.731 169.811 249.994 168.064 257.262 166.315C264.531 164.566 274.078 162.203 278.478 161.066C291.839 157.61 298.915 155.84 311.978 152.685C335.656 146.966 351.483 142.787 353.346 141.761C354.4 141.181 355.591 141.11 356.081 141.6C356.571 142.09 349.225 146.346 339.213 151.374C303.544 169.286 288.014 178.726 280.545 187.034C272.97 195.459 273.47 202.325 281.978 206.723C285.936 208.769 287.461 208.987 294.647 208.54C299.141 208.26 304.181 207.326 305.848 206.464C307.515 205.602 309.571 204.897 310.418 204.897C311.264 204.897 316.799 203.516 322.717 201.829C334.547 198.456 379.818 186.749 392.478 183.79C396.878 182.761 401.603 181.65 402.978 181.32C408.709 179.945 427.79 175.897 432.978 174.954C435.453 174.505 443.103 172.912 449.978 171.416C464.569 168.24 463.119 168.521 478.48 165.903C485.079 164.779 491.153 163.658 491.978 163.412C492.803 163.167 500.453 162.056 508.978 160.944C517.503 159.832 528.978 158.272 534.478 157.477C542.733 156.284 550.948 155.444 563.978 154.46C564.803 154.398 568.628 154.008 572.478 153.595C586.516 152.086 589.978 151.944 589.978 152.873C589.978 153.392 588.066 154.325 585.728 154.947C583.39 155.569 575.403 158.78 567.978 162.082C547.383 171.244 523.869 180.159 513.106 182.887C511.251 183.357 509.248 184.227 508.656 184.819C508.063 185.412 506.365 185.897 504.882 185.897C503.399 185.897 498.876 187.245 494.832 188.894C490.787 190.542 486.952 191.892 486.309 191.894C485.666 191.895 483.866 192.545 482.309 193.336C480.752 194.128 475.115 196.481 469.783 198.566C461.342 201.866 459.823 202.829 458.033 206.013C454.272 212.705 456.159 219.915 461.833 220.536C465.873 220.978 474.883 218.837 482.478 215.63C493.394 211.021 516.461 201.684 517.478 201.463C518.028 201.343 520.503 200.311 522.978 199.171C541.615 190.58 553.985 185.979 571.978 180.943C576.103 179.789 582.178 178.005 585.478 176.979L591.478 175.114L591.978 179.299C592.623 184.701 595.636 188.473 599.793 189.083C602.591 189.494 603.54 189.017 606.54 185.697C609.971 181.899 610.098 181.853 613.942 183.004C617.337 184.022 618.422 183.907 622.165 182.137C624.537 181.016 627.603 179.155 628.978 178.001C633.471 174.232 642.96 164.418 642.969 163.531C642.974 163.054 645.176 159.868 647.862 156.45C654.887 147.51 664.329 131.591 670.614 118.09C673.608 111.659 676.932 104.597 678 102.397L679.942 98.3974L679.425 110.897C678.706 128.282 677.048 148.609 675.95 153.515C673.822 163.024 669.873 173.643 667.744 175.581C666.37 176.832 663.381 177.908 660.152 178.315C657.223 178.684 652.594 179.866 649.865 180.942C647.136 182.017 643.401 182.897 641.563 182.897C639.726 182.897 637.703 183.523 637.068 184.288C636.433 185.053 633.914 185.979 631.469 186.346C629.025 186.713 626.795 187.385 626.514 187.839C626.233 188.294 624.001 188.966 621.554 189.333C619.107 189.7 615.599 191.022 613.758 192.271C611.918 193.52 609.86 194.358 609.186 194.133C608.511 193.908 605.023 195.338 601.434 197.31C597.845 199.283 594.137 200.908 593.194 200.92C592.25 200.933 589.228 202.256 586.478 203.861C583.728 205.465 579.791 207.529 577.728 208.446C575.666 209.364 573.978 210.515 573.978 211.006C573.978 211.496 573.156 211.897 572.151 211.897C571.146 211.897 565.404 214.952 559.39 218.685C540.325 230.521 530.013 236.078 524.383 237.548C521.375 238.333 518.544 238.747 518.092 238.467C516.396 237.419 512.741 242.825 512.265 247.085C511.881 250.519 512.242 251.979 514.04 254.258C516.202 256.998 516.548 257.091 522.183 256.453C525.419 256.087 529.98 254.968 532.318 253.966C536.506 252.17 536.655 252.176 542.523 254.378C558.566 260.396 558.551 260.393 575.478 260.204C586.107 260.085 593.324 259.52 596.978 258.52C610.224 254.894 619.123 251.683 619.637 250.343C619.942 249.548 621.145 248.897 622.309 248.897C627.828 248.897 654.785 226.603 659.217 218.373C659.911 217.086 662.311 213.414 664.551 210.214C666.792 207.015 670.294 201.402 672.334 197.742C674.374 194.082 676.66 190.576 677.414 189.95C679.204 188.465 684.25 186.87 690.478 185.82C701.408 183.979 710.891 181.566 710.39 180.754C710.098 180.283 710.899 179.847 712.169 179.785C716.631 179.57 722.478 179.079 722.478 178.92C722.478 178.832 723.714 178.596 725.224 178.397C729.622 177.816 732.043 176.832 734.077 174.798C736.368 172.507 739.166 172.243 738.34 174.397C738.023 175.222 738.276 175.897 738.902 175.897C739.529 175.897 740.3 175.222 740.616 174.397C740.933 173.572 741.62 172.897 742.144 172.897C742.668 172.897 742.818 173.347 742.478 173.897C742.138 174.447 742.562 174.897 743.419 174.897C744.276 174.897 744.978 174.489 744.978 173.991C744.978 173.492 745.878 173.32 746.978 173.607C748.14 173.911 748.978 173.638 748.978 172.955C748.978 172.308 749.448 172.069 750.022 172.424C750.596 172.779 751.706 172.538 752.488 171.889C753.271 171.239 754.488 170.917 755.194 171.173C755.9 171.428 758.034 171.004 759.936 170.231C761.838 169.458 765.955 168.729 769.084 168.611C772.214 168.493 774.257 168.066 773.626 167.662C772.623 167.021 776.923 166.381 779.333 166.814C779.804 166.898 780.704 166.563 781.333 166.07C783.01 164.756 786.658 164.033 794.946 163.373C799 163.05 803.028 162.405 803.897 161.94C804.767 161.475 805.818 161.065 806.232 161.029C806.647 160.994 809.347 160.634 812.232 160.229C815.118 159.824 818.086 159.614 818.828 159.762C819.571 159.91 819.906 159.589 819.572 159.049C819.208 158.46 820.684 158.109 823.263 158.171C825.626 158.227 828.126 157.924 828.817 157.496C829.509 157.069 833.691 156.558 838.112 156.36C842.532 156.162 846.728 155.519 847.437 154.931C848.145 154.343 849.348 154.102 850.111 154.394C850.873 154.687 853.743 154.444 856.488 153.855C859.232 153.266 863.627 152.714 866.254 152.629C869.818 152.513 870.898 152.131 870.51 151.12C870.124 150.113 870.565 149.952 872.234 150.493C875.049 151.404 882.627 151.073 884.823 149.944C885.733 149.476 891.203 148.584 896.978 147.962C909.118 146.656 925.35 144.331 928.978 143.379C931.02 142.844 931.203 142.94 929.978 143.905C928.725 144.891 928.807 144.972 930.478 144.395C931.578 144.015 933.027 143.61 933.699 143.496C934.371 143.382 935.233 142.975 935.616 142.593C935.998 142.21 938.149 141.894 940.395 141.891C942.64 141.888 946.053 141.459 947.978 140.937C949.903 140.415 953.728 139.734 956.478 139.425C963.025 138.688 968.267 137.756 969.338 137.139C969.81 136.866 972.06 136.474 974.338 136.267C976.615 136.06 979.828 135.713 981.478 135.496C993.377 133.927 1000.35 132.811 1005.98 131.574C1009.55 130.788 1014.95 129.865 1017.98 129.523C1021 129.181 1026.4 128.447 1029.98 127.892C1033.55 127.338 1038.5 126.603 1040.98 126.259C1043.45 125.915 1046.38 124.833 1047.48 123.854C1048.61 122.844 1052.03 121.762 1055.37 121.353C1059.93 120.794 1060.87 120.413 1059.52 119.659C1058.56 119.124 1056.49 118.944 1054.92 119.259C1053.34 119.574 1051.77 119.374 1051.43 118.816C1051.01 118.143 1050.34 118.185 1049.43 118.94C1047.67 120.395 1039.65 121.241 1040.49 119.882C1040.82 119.34 1040.61 118.897 1040.01 118.897C1039.41 118.897 1038.69 119.484 1038.41 120.202C1038.05 121.154 1035.02 121.533 1027.2 121.603C1011.47 121.744 1010.02 121.907 1006.4 123.94C1004.01 125.283 1002.33 125.573 1000.29 124.993C998.743 124.553 996.578 124.379 995.478 124.605C992.125 125.295 977.811 126.973 971.978 127.359C968.953 127.559 962.203 128.253 956.978 128.901C951.753 129.55 944.778 130.232 941.478 130.418C938.178 130.604 934.211 131.238 932.663 131.827C931.115 132.415 927.065 132.898 923.663 132.9C920.261 132.902 913.653 133.57 908.978 134.385C904.303 135.2 896.878 136.113 892.478 136.414C877.984 137.407 873.509 137.842 870.978 138.508C868.049 139.279 865.776 139.661 860.978 140.186C859.053 140.397 856.128 140.858 854.478 141.21C852.828 141.563 848.328 142.088 844.478 142.379C840.628 142.67 835.143 143.532 832.288 144.296C829.434 145.059 826.866 145.451 826.581 145.167C826.297 144.883 825.257 144.994 824.271 145.413C823.285 145.833 820.453 146.323 817.978 146.501C815.503 146.679 811.447 147.31 808.965 147.904C806.482 148.497 803.332 149.129 801.965 149.308C800.597 149.486 798.803 149.879 797.978 150.181C797.153 150.483 793.778 151.041 790.478 151.421C787.178 151.801 783.353 152.258 781.978 152.436C778.333 152.91 756.907 156.635 753.978 157.305C752.603 157.619 750.353 158.098 748.978 158.369C747.603 158.641 742.203 159.785 736.978 160.913C731.753 162.04 726.578 162.869 725.478 162.755C724.378 162.641 721.736 163.302 719.606 164.223C717.476 165.144 714.67 165.897 713.37 165.897C712.07 165.897 708.863 166.393 706.242 166.998C696.691 169.206 694.397 169.76 690.131 170.887C687.74 171.519 685.639 171.891 685.463 171.715C685.286 171.539 685.759 169.016 686.513 166.108C689.794 153.462 691.44 135.744 692.479 101.897C692.86 89.5224 693.316 79.1614 693.494 78.8724C693.673 78.5834 694.078 74.9834 694.395 70.8724C695.564 55.7234 696.185 51.2654 697.944 45.3974C698.932 42.0974 700.066 35.5724 700.462 30.8974C701.347 20.4754 701.589 18.4114 702.492 13.6434C703.26 9.58438 702.181 7.19138 697.452 2.46238C694.566 -0.423623 693.661 -0.651625 692.225 1.14737ZM429.978 108.853C429.978 109.848 423.141 111.992 413.978 113.869C405.788 115.547 396.055 117.697 390.978 118.95C388.503 119.561 384.228 120.429 381.478 120.88C373.548 122.178 366.662 124.033 364.28 125.511C363.071 126.261 361.834 126.474 361.531 125.983C361.223 125.485 358.925 125.71 356.32 126.494C353.757 127.266 350.607 127.897 349.319 127.897C348.031 127.897 346.978 128.374 346.978 128.956C346.978 129.538 346.528 129.737 345.978 129.397C345.428 129.057 344.978 129.165 344.978 129.637C344.978 130.109 343.454 130.318 341.592 130.1C339.729 129.883 337.173 130.258 335.91 130.933C333.528 132.208 326.113 134.261 317.478 136.036C314.728 136.602 311.79 137.681 310.949 138.435C310.109 139.189 308.534 139.76 307.449 139.704C306.365 139.648 299.503 141.244 292.2 143.25C284.897 145.256 277.758 146.897 276.334 146.897C274.911 146.897 271.661 147.59 269.112 148.436C260.986 151.134 242.547 156.027 240.563 156.011C239.509 156.003 237.408 156.878 235.894 157.957L233.141 159.917L232.605 157.157C232.31 155.639 231.775 150.084 231.417 144.813L230.765 135.229L260.122 129.501C298.008 122.108 296.924 122.3 314.478 119.885C345.115 115.67 353.664 114.611 366.978 113.379C370.003 113.099 373.603 112.666 374.978 112.416C376.353 112.166 381.528 111.687 386.478 111.351C391.428 111.016 401.553 110.197 408.978 109.532C427.742 107.852 429.978 107.78 429.978 108.853ZM599.512 154.138C597.622 155.196 596.448 154.564 597.41 153.007C597.758 152.445 598.752 152.257 599.619 152.59C601.028 153.13 601.017 153.296 599.512 154.138ZM654.466 199.632C651.319 204.387 644.017 213.543 639.478 218.424C636.71 221.401 626.447 229.105 621.299 232.071C609.359 238.949 591.709 244.321 577.375 245.442C569.248 246.077 548.923 244.316 549.021 242.985C549.045 242.662 551.633 240.779 554.771 238.801C557.91 236.822 562.953 233.613 565.978 231.669C572.294 227.609 575.147 225.983 587.237 219.554C592.044 216.997 595.978 215.173 595.978 215.5C595.978 215.827 597.542 215.172 599.454 214.043C601.366 212.915 604.854 211.311 607.204 210.478C615.464 207.55 619.506 206.047 622.478 204.796C624.128 204.102 626.153 203.447 626.978 203.342C628.738 203.117 638.46 200.144 641.775 198.817C643.038 198.311 645.063 197.878 646.275 197.856C647.487 197.833 650.503 196.807 652.978 195.574C655.453 194.342 657.659 193.454 657.88 193.601C658.1 193.747 656.564 196.461 654.466 199.632ZM262.632 237.726C260.321 240.281 261.094 242.975 265.108 246.353C270.444 250.843 276.978 248.772 276.978 242.591C276.978 237.378 266.243 233.737 262.632 237.726Z" fill="black"/>
</svg>
