<svg width="20" height="20" viewBox="0 0 20 20" fill="none" xmlns="http://www.w3.org/2000/svg">
<path d="M5 3C3.89688 3 3 3.89688 3 5V15C3 16.1031 3.89688 17 5 17H15C16.1031 17 17 16.1031 17 15V5C17 3.89688 16.1031 3 15 3H5ZM9.53438 10.3719L6.3875 8.48125C6.14688 8.3375 6 8.07812 6 7.79688C6 7.35625 6.35625 7 6.79688 7H13.2C13.6406 7 13.9969 7.35625 13.9969 7.79688C13.9969 8.07812 13.85 8.3375 13.6094 8.48125L10.4656 10.3719C10.325 10.4562 10.1656 10.5 10 10.5C9.83437 10.5 9.675 10.4562 9.53438 10.3719ZM14 9.41563V12C14 12.5531 13.5531 13 13 13H7C6.44687 13 6 12.5531 6 12V9.41563L9.02187 11.2281C9.31562 11.4062 9.65625 11.5 10 11.5C10.3438 11.5 10.6844 11.4062 10.9781 11.2281L14 9.41563Z" fill="#404040"/>
</svg>
