<svg width="141" height="128" viewBox="0 0 141 128" fill="none" xmlns="http://www.w3.org/2000/svg">
<path d="M84.9281 93.1545L81.9216 87.9792L72.5251 93.4431V82.4316H66.5401V93.4105L57.204 87.9792L54.1929 93.1545L63.608 98.6277L54.4396 103.957L57.4507 109.132L66.5401 103.849V114.219H72.5251V103.812L81.675 109.132L84.6815 103.957L75.513 98.6277L84.9281 93.1545Z" fill="#231F20"/>
<path fill-rule="evenodd" clip-rule="evenodd" d="M104.842 91.309L92.4569 113.777V113.772L92.3825 113.912C87.8541 122.182 78.923 127.316 69.7686 127.316C60.6141 127.316 52.0693 122.387 47.4665 114.457C47.2524 114.093 47.0523 113.726 46.8614 113.354L0 27.5192L1.88023 25.9462C20.4963 9.22429 44.3436 0 69.6755 0C95.0074 0 119.269 9.37786 137.988 26.4116L139.737 28.0034L128.527 48.3391L104.842 91.309ZM132.202 29.2785L123.29 45.4477L99.6048 88.418L87.2073 110.91L87.1375 111.041L87.1328 111.036C83.6515 117.384 76.9963 121.331 69.7639 121.331C62.5315 121.331 56.1881 117.552 52.6464 111.469L52.1065 110.482L7.58141 28.9109C24.8758 14.111 46.8381 5.98508 69.6802 5.98508C92.5221 5.98508 114.838 14.2413 132.202 29.2785Z" fill="#231F20"/>
<path d="M31.4451 46.3026L34.3678 51.5523C44.7091 44.2734 56.8654 40.4245 69.529 40.4245C82.1927 40.4245 94.4467 44.306 104.816 51.65L107.739 46.4004C96.4666 38.5816 83.277 34.4395 69.5244 34.4395C55.7717 34.4395 42.6845 38.5443 31.4404 46.3072L31.4451 46.3026Z" fill="#231F20"/>
<path d="M69.5312 23.7644C85.0989 23.7644 100.108 28.3485 112.967 37.0097L115.885 31.7693C102.133 22.6195 86.1228 17.7793 69.5312 17.7793C52.9396 17.7793 37.0321 22.5916 23.312 31.6809L26.23 36.9213C39.0565 28.316 54.0286 23.7644 69.5359 23.7644H69.5312Z" fill="#231F20"/>
<path d="M39.6772 61.0488L42.6139 66.3218C50.4095 60.36 59.7128 57.2092 69.5375 57.2092C79.3622 57.2092 88.7679 60.3973 96.5867 66.4242L99.5235 61.1512C90.7925 54.6588 80.4512 51.2241 69.5375 51.2241C58.6238 51.2241 48.3802 54.6263 39.6772 61.0535V61.0488Z" fill="#231F20"/>
<path d="M69.5354 68.0093C61.6003 68.0093 53.9863 70.797 47.9453 75.8838L50.9239 81.2313C56.0201 76.568 62.6288 73.9944 69.54 73.9944C76.4513 73.9944 83.1624 76.6053 88.2725 81.3431L91.2511 75.9909C85.1868 70.8343 77.5311 68.0093 69.5354 68.0093Z" fill="#231F20"/>
</svg>
