<svg width="800" height="800" viewBox="0 0 800 800" fill="none" xmlns="http://www.w3.org/2000/svg">
<g clip-path="url(#clip0_4164_951)">
<path d="M0 412C6.62742 412 12 406.627 12 400C12 393.373 6.62742 388 0 388C-6.62742 388 -12 393.373 -12 400C-12 406.627 -6.62742 412 0 412Z" fill="#a3a3a3"/>
<path d="M0 12C6.62742 12 12 6.62742 12 0C12 -6.62742 6.62742 -12 0 -12C-6.62742 -12 -12 -6.62742 -12 0C-12 6.62742 -6.62742 12 0 12Z" fill="#a3a3a3"/>
<path d="M0 812C6.62742 812 12 806.627 12 800C12 793.373 6.62742 788 0 788C-6.62742 788 -12 793.373 -12 800C-12 806.627 -6.62742 812 0 812Z" fill="#a3a3a3"/>
<path d="M800 412C806.627 412 812 406.627 812 400C812 393.373 806.627 388 800 388C793.373 388 788 393.373 788 400C788 406.627 793.373 412 800 412Z" fill="#a3a3a3"/>
<path d="M800 12C806.627 12 812 6.62742 812 0C812 -6.62742 806.627 -12 800 -12C793.373 -12 788 -6.62742 788 0C788 6.62742 793.373 12 800 12Z" fill="#a3a3a3"/>
<path d="M800 812C806.627 812 812 806.627 812 800C812 793.373 806.627 788 800 788C793.373 788 788 793.373 788 800C788 806.627 793.373 812 800 812Z" fill="#a3a3a3"/>
<path d="M400 12C406.627 12 412 6.62742 412 0C412 -6.62742 406.627 -12 400 -12C393.373 -12 388 -6.62742 388 0C388 6.62742 393.373 12 400 12Z" fill="#a3a3a3"/>
<path d="M400 412C406.627 412 412 406.627 412 400C412 393.373 406.627 388 400 388C393.373 388 388 393.373 388 400C388 406.627 393.373 412 400 412Z" fill="#a3a3a3"/>
<path d="M400 812C406.627 812 412 806.627 412 800C412 793.373 406.627 788 400 788C393.373 788 388 793.373 388 800C388 806.627 393.373 812 400 812Z" fill="#a3a3a3"/>
</g>
<defs>
<clipPath id="clip0_4164_951">
<rect width="800" height="800" fill="white"/>
</clipPath>
</defs>
</svg>
